REM DIRINDEX 1\2,1\3,1\4
REM DIRNAME folder01,folder02,folder03,folder04
TITLE ""
FILE "080 080_TOEFL_3900.mp3" MP3
  TRACK 01 AUDIO
    TITLE "2:cjc151_3471"
    INDEX 01 00:00:00
  TRACK 02 AUDIO
    TITLE "0:"
    INDEX 01 00:01:07
  TRACK 03 AUDIO
    TITLE "3:cjc151_3472"
    INDEX 01 00:02:59
  TRACK 04 AUDIO
    TITLE "0:"
    INDEX 01 00:06:22
  TRACK 05 AUDIO
    TITLE "2:cjc151_3473"
    INDEX 01 00:07:74
  TRACK 06 AUDIO
    TITLE "0:"
    INDEX 01 00:09:04
  TRACK 07 AUDIO
    TITLE "3:cjc151_3474"
    INDEX 01 00:10:65
  TRACK 08 AUDIO
    TITLE "0:"
    INDEX 01 00:14:11
  TRACK 09 AUDIO
    TITLE "2:cjc151_3475"
    INDEX 01 00:15:64
  TRACK 10 AUDIO
    TITLE "0:"
    INDEX 01 00:17:06
  TRACK 11 AUDIO
    TITLE "3:cjc151_3476"
    INDEX 01 00:18:58
  TRACK 12 AUDIO
    TITLE "0:"
    INDEX 01 00:22:13
  TRACK 13 AUDIO
    TITLE "2:cjc151_3477"
    INDEX 01 00:23:65
  TRACK 14 AUDIO
    TITLE "0:"
    INDEX 01 00:24:69
  TRACK 15 AUDIO
    TITLE "3:cjc151_3478"
    INDEX 01 00:26:48
  TRACK 16 AUDIO
    TITLE "0:"
    INDEX 01 00:30:20
  TRACK 17 AUDIO
    TITLE "2:cjc151_3479"
    INDEX 01 00:32:00
  TRACK 18 AUDIO
    TITLE "0:"
    INDEX 01 00:33:17
  TRACK 19 AUDIO
    TITLE "3:cjc151_3480"
    INDEX 01 00:34:73
  TRACK 20 AUDIO
    TITLE "0:"
    INDEX 01 00:38:51
  TRACK 21 AUDIO
    TITLE "2:cjc151_3481"
    INDEX 01 00:40:30
  TRACK 22 AUDIO
    TITLE "0:"
    INDEX 01 00:41:53
  TRACK 23 AUDIO
    TITLE "3:cjc151_3482"
    INDEX 01 00:43:33
  TRACK 24 AUDIO
    TITLE "0:"
    INDEX 01 00:46:62
  TRACK 25 AUDIO
    TITLE "2:cjc151_3483"
    INDEX 01 00:48:42
  TRACK 26 AUDIO
    TITLE "0:"
    INDEX 01 00:49:45
  TRACK 27 AUDIO
    TITLE "3:cjc151_3484"
    INDEX 01 00:51:44
  TRACK 28 AUDIO
    TITLE "0:"
    INDEX 01 00:56:29
  TRACK 29 AUDIO
    TITLE "2:cjc151_3485"
    INDEX 01 00:58:07
  TRACK 30 AUDIO
    TITLE "0:"
    INDEX 01 00:59:04
  TRACK 31 AUDIO
    TITLE "3:cjc151_3486"
    INDEX 01 01:00:55
  TRACK 32 AUDIO
    TITLE "0:"
    INDEX 01 01:04:56
  TRACK 33 AUDIO
    TITLE "2:cjc151_3487"
    INDEX 01 01:06:49
  TRACK 34 AUDIO
    TITLE "0:"
    INDEX 01 01:07:59
  TRACK 35 AUDIO
    TITLE "3:cjc151_3488"
    INDEX 01 01:09:46
  TRACK 36 AUDIO
    TITLE "0:"
    INDEX 01 01:14:41
  TRACK 37 AUDIO
    TITLE "2:cjc151_3489"
    INDEX 01 01:16:18
  TRACK 38 AUDIO
    TITLE "0:"
    INDEX 01 01:17:43
  TRACK 39 AUDIO
    TITLE "3:cjc151_3490"
    INDEX 01 01:19:19
  TRACK 40 AUDIO
    TITLE "0:"
    INDEX 01 01:23:34
  TRACK 41 AUDIO
    TITLE "2:cjc151_3491"
    INDEX 01 01:25:13
  TRACK 42 AUDIO
    TITLE "0:"
    INDEX 01 01:26:09
  TRACK 43 AUDIO
    TITLE "3:cjc151_3492"
    INDEX 01 01:27:61
  TRACK 44 AUDIO
    TITLE "0:"
    INDEX 01 01:33:03
  TRACK 45 AUDIO
    TITLE "2:cjc151_3493"
    INDEX 01 01:34:57
  TRACK 46 AUDIO
    TITLE "0:"
    INDEX 01 01:35:63
  TRACK 47 AUDIO
    TITLE "3:cjc151_3494"
    INDEX 01 01:37:42
  TRACK 48 AUDIO
    TITLE "0:"
    INDEX 01 01:41:52
  TRACK 49 AUDIO
    TITLE "2:cjc151_3495"
    INDEX 01 01:43:29
  TRACK 50 AUDIO
    TITLE "0:"
    INDEX 01 01:44:40
  TRACK 51 AUDIO
    TITLE "3:cjc151_3496"
    INDEX 01 01:46:19
  TRACK 52 AUDIO
    TITLE "0:"
    INDEX 01 01:49:35
  TRACK 53 AUDIO
    TITLE "2:cjc151_3497"
    INDEX 01 01:51:15
  TRACK 54 AUDIO
    TITLE "0:"
    INDEX 01 01:52:16
  TRACK 55 AUDIO
    TITLE "3:cjc151_3498"
    INDEX 01 01:53:70
  TRACK 56 AUDIO
    TITLE "0:"
    INDEX 01 01:57:21
  TRACK 57 AUDIO
    TITLE "2:cjc151_3499"
    INDEX 01 01:59:01
  TRACK 58 AUDIO
    TITLE "0:"
    INDEX 01 01:59:73
  TRACK 59 AUDIO
    TITLE "3:cjc151_3500"
    INDEX 01 02:01:52
  TRACK 60 AUDIO
    TITLE "0:"
    INDEX 01 02:05:38
  TRACK 61 AUDIO
    TITLE "2:cjc151_3501"
    INDEX 01 02:07:18
  TRACK 62 AUDIO
    TITLE "0:"
    INDEX 01 02:08:09
  TRACK 63 AUDIO
    TITLE "3:cjc151_3502"
    INDEX 01 02:09:62
  TRACK 64 AUDIO
    TITLE "0:"
    INDEX 01 02:14:08
  TRACK 65 AUDIO
    TITLE "2:cjc151_3503"
    INDEX 01 02:15:62
  TRACK 66 AUDIO
    TITLE "0:"
    INDEX 01 02:16:58
  TRACK 67 AUDIO
    TITLE "3:cjc151_3504"
    INDEX 01 02:18:35
  TRACK 68 AUDIO
    TITLE "0:"
    INDEX 01 02:22:15
  TRACK 69 AUDIO
    TITLE "2:cjc151_3505"
    INDEX 01 02:23:72
  TRACK 70 AUDIO
    TITLE "0:"
    INDEX 01 02:24:63
  TRACK 71 AUDIO
    TITLE "3:cjc151_3506"
    INDEX 01 02:26:41
  TRACK 72 AUDIO
    TITLE "0:"
    INDEX 01 02:30:11
  TRACK 73 AUDIO
    TITLE "2:cjc151_3507"
    INDEX 01 02:31:65
  TRACK 74 AUDIO
    TITLE "0:"
    INDEX 01 02:32:72
  TRACK 75 AUDIO
    TITLE "3:cjc151_3508"
    INDEX 01 02:34:52
  TRACK 76 AUDIO
    TITLE "0:"
    INDEX 01 02:38:67
  TRACK 77 AUDIO
    TITLE "2:cjc151_3509"
    INDEX 01 02:40:64
  TRACK 78 AUDIO
    TITLE "0:"
    INDEX 01 02:43:04
  TRACK 79 AUDIO
    TITLE "3:cjc151_3510"
    INDEX 01 02:44:64
  TRACK 80 AUDIO
    TITLE "0:"
    INDEX 01 02:48:64
  TRACK 81 AUDIO
    TITLE "2:cjc151_3511"
    INDEX 01 02:50:63
  TRACK 82 AUDIO
    TITLE "0:"
    INDEX 01 02:51:74
  TRACK 83 AUDIO
    TITLE "3:cjc151_3512"
    INDEX 01 02:53:53
  TRACK 84 AUDIO
    TITLE "0:"
    INDEX 01 02:57:20
  TRACK 85 AUDIO
    TITLE "2:cjc151_3513"
    INDEX 01 02:58:72
  TRACK 86 AUDIO
    TITLE "0:"
    INDEX 01 02:59:65
  TRACK 87 AUDIO
    TITLE "3:cjc151_3514"
    INDEX 01 03:01:43
  TRACK 88 AUDIO
    TITLE "0:"
    INDEX 01 03:04:47
